<svg width="85" height="102" viewBox="0 0 85 102" fill="none" xmlns="http://www.w3.org/2000/svg">
<path d="M33.8322 70.2275C32.807 70.4838 32.0381 70.7401 31.2691 71.2527C30.2439 69.7149 29.4751 67.9207 28.4499 66.6392C26.6557 64.0762 24.6052 61.7694 22.8111 59.2064C19.9918 55.3618 17.685 51.5172 16.6598 46.6474C14.3531 34.6011 21.0169 22.811 32.5507 18.1976C47.6727 12.0462 65.1014 22.2984 67.4082 38.4457C68.4334 45.8785 66.1266 52.0298 62.0258 57.9248C60.2316 60.4879 57.9249 63.0509 56.1308 65.8703C54.8492 67.6644 54.0804 69.4586 52.7988 71.2527C52.2862 72.0216 51.7736 72.7905 51.0047 73.0468C45.1097 75.3536 39.2147 77.404 33.3196 79.4545C32.5507 79.7108 32.0381 79.4545 31.7818 78.9419C31.5255 78.1729 31.5255 77.404 32.2944 77.1477C32.807 76.8914 33.3196 76.6351 33.8322 76.6351C38.9583 74.841 44.0844 73.0468 49.2105 70.9964C49.7231 70.7401 50.2357 70.2275 50.492 69.7149C52.5425 65.8703 55.1056 62.7946 57.6686 59.2064C60.2317 55.8744 62.5384 52.7987 63.5636 48.6979C66.1266 40.4961 64.3325 33.3196 58.6938 27.1682C52.2862 19.9917 44.0845 17.6849 34.8575 20.5043C25.6305 23.3237 20.5044 29.7313 18.7102 39.2146C17.4287 45.8785 19.7354 51.5172 23.58 56.6433C25.8867 59.719 28.1935 62.7946 30.5003 65.8703C32.0381 66.8955 32.807 68.4333 33.8322 70.2275Z" fill="#00C7FF"/>
<path d="M32.5506 95.6016C32.2943 95.3453 31.7817 95.089 31.7817 94.5764C31.7817 94.0638 32.0381 93.5512 32.2944 93.0386C32.2944 92.7823 32.807 92.7823 33.0633 92.7823C38.702 90.7318 44.597 88.6814 50.2357 86.6309C51.5173 86.1183 52.0298 86.3746 52.2861 87.1436C52.5424 87.9125 52.0298 88.6814 51.0046 89.194C45.1096 91.2444 39.4709 93.2949 33.5759 95.6016C33.3196 95.3453 33.0632 95.3453 32.5506 95.6016Z" fill="#00C7FF"/>
<path d="M32.5506 87.1439C32.2943 86.8876 31.7817 86.6312 31.7817 86.1186C31.7817 85.606 32.0381 85.0934 32.2944 84.5808C32.2944 84.3245 32.807 84.3245 33.0633 84.3245C38.702 82.2741 44.597 80.2236 50.2357 78.1732C51.5173 77.6606 52.0298 77.9169 52.2861 78.6858C52.5424 79.4547 52.2861 80.2236 51.0046 80.7362C45.1096 82.7867 39.4709 85.0934 33.5759 87.1439C33.3196 87.1439 33.0632 87.1439 32.5506 87.1439Z" fill="#00C7FF"/>
<path d="M51.0045 94.3201C49.2103 100.471 39.2144 104.06 33.0631 100.728C38.9581 98.6773 44.8531 96.3705 51.0045 94.3201Z" fill="#00C7FF"/>
<path d="M43.3155 4.61349C43.3155 5.63871 43.3155 6.66393 43.3155 7.68915C43.3155 8.45807 42.8029 8.97068 42.034 8.97068C41.2651 8.97068 40.7524 8.45807 40.7524 7.68915C40.7524 5.63871 40.7524 3.58827 40.7524 1.28153C40.7524 0.51261 41.2651 0 42.034 0C42.8029 0 43.3155 0.51261 43.3155 1.28153C43.3155 2.30675 43.3155 3.58827 43.3155 4.61349Z" fill="#00C7FF"/>
<path d="M4.61346 40.4963C5.63868 40.4963 6.66393 40.4963 7.68915 40.4963C8.71437 40.4963 9.227 41.0089 9.227 41.7779C9.227 42.5468 8.71437 43.0594 7.68915 43.0594C5.63871 43.0594 3.58829 43.0594 1.53785 43.0594C0.512626 43.0594 0 42.5468 0 41.7779C0 41.0089 0.512626 40.4963 1.53785 40.4963C2.56307 40.4963 3.58824 40.4963 4.61346 40.4963Z" fill="#00C7FF"/>
<path d="M79.4544 43.3157C78.4292 43.3157 77.4039 43.3157 76.3787 43.3157C75.6098 43.3157 75.0972 42.8031 75.0972 42.0342C75.0972 41.2653 75.6098 40.7527 76.3787 40.7527C78.4291 40.7527 80.7359 40.7527 82.7863 40.7527C83.5552 40.7527 84.0678 41.2653 84.0678 42.0342C84.0678 42.8031 83.5552 43.3157 82.7863 43.3157C81.5048 43.3157 80.4796 43.3157 79.4544 43.3157Z" fill="#00C7FF"/>
<path d="M12.8152 11.2773C13.3278 11.5336 13.5841 11.79 13.8404 12.0463C15.3782 13.5841 16.6598 14.8656 18.1976 16.4034C18.9665 17.1724 18.9665 17.685 18.1976 18.4539C17.685 18.9665 16.916 18.9665 16.1471 18.4539C14.6093 16.9161 13.0715 15.6345 11.79 14.0967C11.5337 13.8404 11.2773 13.0715 11.5337 12.5589C11.79 11.79 12.5589 11.5336 12.8152 11.2773Z" fill="#00C7FF"/>
<path d="M66.383 64.8455C66.8956 65.1018 67.1519 65.3581 67.4082 65.6144C68.946 66.8959 70.2275 68.4337 71.7654 69.7153C72.5343 70.4842 72.5343 71.2531 72.0217 71.7657C71.5091 72.2783 70.7401 72.2783 69.9712 71.5094C68.4334 69.9716 67.1519 68.69 65.6141 67.1522C65.3578 66.8959 65.1014 66.127 65.3577 65.6144C65.3577 65.3581 65.8703 65.1018 66.383 64.8455Z" fill="#00C7FF"/>
<path d="M72.5341 12.8152C72.2778 13.3278 72.0215 13.5841 71.7652 13.8404C70.2274 15.3782 68.9458 16.6598 67.408 18.1976C66.8954 18.7102 66.1265 18.9665 65.3576 18.1976C64.845 17.685 64.845 16.9161 65.3576 16.1471C66.8954 14.6093 68.1769 13.0715 69.7147 11.79C69.971 11.5337 70.74 11.2774 71.2526 11.5337C71.7652 11.79 72.0215 12.5589 72.5341 12.8152Z" fill="#00C7FF"/>
<path d="M12.815 72.278C12.5587 72.0217 12.0461 71.7654 11.7898 71.2528C11.5335 70.9965 11.7898 70.2276 11.7898 69.9713C13.3276 68.4335 14.8655 66.6393 16.6596 65.1015C17.1722 64.5889 17.9411 64.5889 18.4537 65.1015C18.9663 65.6141 18.9663 66.383 18.4537 66.8956C16.9159 68.4335 15.3781 69.9713 13.8402 71.5091C13.5839 72.0217 13.3276 72.278 12.815 72.278Z" fill="#00C7FF"/>
</svg>
