<svg width="95" height="95" viewBox="0 0 95 95" fill="none" xmlns="http://www.w3.org/2000/svg">
<path d="M92.1114 2.70478C90.6869 2.70478 89.0249 2.70478 87.6004 2.70478C77.8661 3.17962 68.6067 5.31642 59.8221 9.59001C49.1381 14.5759 40.1161 21.6985 32.9934 31.1954C28.0076 37.6058 24.4462 44.7284 21.8346 52.3259C21.5972 52.8008 21.8346 53.0382 22.072 53.2756C24.2088 55.4124 26.3456 57.5492 28.4824 59.686C28.7198 59.9234 28.9572 60.3983 28.9572 60.8731C28.9572 61.3479 28.7198 61.8228 28.245 62.0602C27.7701 62.2976 27.0579 62.2976 26.8205 61.8228C25.6333 60.6357 24.6837 59.686 23.4965 58.4989C22.072 57.0744 20.8849 55.6498 19.4604 54.4627C18.9855 53.9879 18.7481 53.2756 18.9855 52.5633C22.072 43.3039 26.583 34.7567 32.9934 27.1592C39.4038 19.3243 47.2387 13.1513 56.0233 8.64032C64.0957 4.36673 72.8803 1.75509 81.9023 0.567985C85.701 0.0931416 89.4998 -0.14428 93.2985 0.0931417C94.4856 0.0931417 94.7231 0.567985 94.9605 1.75509C95.4353 17.1875 91.6366 31.4328 83.3268 44.7284C75.0171 57.7866 63.6208 67.5209 49.3755 73.6939C47.2387 74.6436 44.8645 75.3558 42.4903 76.3055C41.778 76.5429 41.3032 76.5429 40.8283 75.8307C38.4541 73.4565 35.8425 70.8448 33.4683 68.4706C32.9934 67.9958 32.756 67.2835 33.2308 66.5712C33.7057 65.859 34.6554 65.859 35.3676 66.5712C37.5044 68.708 39.6412 70.8448 41.778 72.9816C42.2529 73.4564 42.4903 73.4565 42.9651 73.219C53.4117 69.6577 62.6711 63.9596 70.506 56.3621C79.7655 47.3401 85.9384 36.6561 89.4998 24.5476C91.3991 17.8998 92.3488 11.0145 92.3488 3.89189C92.3488 3.41705 92.1114 3.17962 92.1114 2.70478Z" fill="#00C7FF"/>
<path d="M79.0532 30.483C79.0532 38.5553 72.6428 44.9657 64.5705 44.9657C56.4982 44.9657 50.0878 38.5553 50.0878 30.483C50.0878 22.6481 56.4982 16.0002 64.3331 16.0002C72.6428 16.0002 79.0532 22.4106 79.0532 30.483ZM76.2042 30.7204C76.2042 24.0726 70.9809 18.8493 64.3331 18.8493C57.6853 18.8493 52.462 24.0726 52.462 30.7204C52.462 37.3682 57.6853 42.5915 64.3331 42.5915C70.9809 42.3541 76.2042 37.1308 76.2042 30.7204Z" fill="#00C7FF"/>
<path d="M42.7278 91.2627C44.3897 90.3131 46.0517 89.1259 47.4762 87.9388C52.2247 83.6653 54.8363 78.442 56.0234 72.269C56.2608 71.3193 56.7357 70.8445 57.4479 70.8445C58.3976 70.8445 58.8725 71.5567 58.8725 72.5064C58.6351 73.6935 58.3976 75.1181 57.9228 76.3052C55.3111 84.3775 50.5627 90.3131 43.2026 94.3492C41.5407 95.2989 40.8284 94.8241 40.591 93.1621C39.6413 88.1763 38.6916 82.953 37.7419 77.9671C37.7419 77.4923 37.7419 77.0174 37.7419 76.78C37.9794 76.3052 38.4542 76.0678 39.1665 76.0678C39.6413 76.0678 40.1162 76.5426 40.3536 77.0174C40.591 78.442 40.8284 79.8665 41.3033 81.5285C41.5407 84.8524 42.253 87.9388 42.7278 91.2627Z" fill="#00C7FF"/>
<path d="M3.55319 52.0886C4.97772 52.3261 6.40225 52.5635 7.58936 52.8009C10.9133 53.5132 14.2372 53.988 17.3237 54.7003C17.5611 54.7003 17.5611 54.7003 17.7985 54.7003C18.5108 54.9377 18.9856 55.65 18.7482 56.3622C18.5108 57.0745 18.0359 57.5493 17.0862 57.3119C15.1869 56.8371 13.0501 56.5996 11.1507 56.1248C8.06421 55.4125 4.97772 54.9377 1.65382 54.2254C1.4164 54.2254 1.4164 54.2254 1.17898 54.2254C-0.00813276 53.988 -0.245555 53.2757 0.229289 52.0886C1.65382 49.477 3.31577 46.8654 5.45257 44.7286C9.96358 39.9801 15.4243 37.3685 21.5972 35.944C21.8347 35.944 22.0721 35.944 22.0721 35.7065C22.7844 35.4691 23.4966 35.944 23.734 36.6562C23.9715 37.3685 23.4966 38.0808 22.5469 38.3182C21.1224 38.793 19.4604 39.0304 18.0359 39.5053C11.863 41.6421 7.11452 45.4408 3.55319 50.9015C3.79061 51.6138 3.79061 51.8512 3.55319 52.0886Z" fill="#00C7FF"/>
<path d="M20.41 73.2191C20.6475 72.9817 20.8849 72.5068 21.1223 72.2694C25.6333 67.7584 29.9069 63.4848 34.4179 58.9738C36.0799 57.3118 37.5044 55.8873 39.1663 54.2253C39.8786 53.5131 40.5909 53.5131 41.3031 53.9879C41.778 54.4628 41.778 55.4124 41.0657 56.1247C35.8424 61.348 30.6192 66.8087 25.1585 72.032C24.4462 72.7442 23.7339 73.6939 22.7843 74.4062C22.3094 74.881 21.8346 74.881 21.3597 74.6436C20.6475 74.4062 20.41 73.9313 20.41 73.2191Z" fill="#00C7FF"/>
<path d="M14.2372 79.3921C14.712 79.6295 15.1869 79.8669 15.4243 80.3418C15.6617 80.8166 15.4243 81.2915 15.1869 81.7663C14.9495 82.0037 14.4746 82.4786 14.2372 82.9534C11.3881 85.8025 8.53908 88.889 5.45259 91.738C4.97775 91.9754 4.74033 92.2129 4.26548 92.2129C3.79064 92.2129 3.3158 91.9754 3.07838 91.5006C2.84095 90.7883 2.84095 90.3135 3.3158 89.8386C5.21517 87.9393 7.11455 86.0399 9.01392 84.1405C10.4384 82.716 11.6256 81.5289 13.0501 80.1044C13.5249 79.8669 13.7624 79.6295 14.2372 79.3921Z" fill="#00C7FF"/>
<path d="M12.1002 69.6577C13.2873 69.6577 13.9996 70.8448 13.5248 71.5571C13.2873 71.7945 13.2873 72.0319 13.0499 72.2694C9.96344 75.3558 6.87696 78.4423 3.79047 81.5288L3.55305 81.7662C2.84079 82.2411 2.12852 82.4785 1.65368 81.7662C1.17884 81.2914 1.17884 80.3417 1.65368 79.8669C4.0279 77.4926 6.40211 75.1184 8.77633 72.7442C9.72602 71.7945 10.4383 71.0822 11.388 70.37C11.6254 69.8951 12.1002 69.6577 12.1002 69.6577Z" fill="#00C7FF"/>
<path d="M25.3959 82.9535C25.3959 83.1909 25.1585 83.4283 24.9211 83.9031C21.5972 87.2271 18.5107 90.3135 15.1868 93.6374C14.4745 94.3497 13.7623 94.3497 13.05 93.6374C12.5751 93.1626 12.5751 92.2129 13.2874 91.7381C16.6113 88.4142 19.6978 85.3277 23.0217 82.0038C23.4965 81.5289 23.9714 81.2915 24.6837 81.5289C25.1585 81.7664 25.3959 82.0038 25.3959 82.9535Z" fill="#00C7FF"/>
</svg>
