<svg width="70" height="70" viewBox="0 0 70 70" fill="none" xmlns="http://www.w3.org/2000/svg">
<circle cx="35" cy="35" r="35" fill="#00C7FF"/>
<path d="M48.1571 30.5975L38.5833 21.2859C37.7724 20.5148 36.6961 20.0848 35.5771 20.0848C34.4581 20.0848 33.3818 20.5148 32.5708 21.2859L22.9971 30.5359C22.5717 30.9072 22.2296 31.3642 21.9931 31.877C21.7567 32.3897 21.6312 32.9467 21.625 33.5113V46.7388C21.6412 47.8605 22.1014 48.9301 22.9048 49.7132C23.7081 50.4963 24.789 50.9291 25.9108 50.9167H45.0892C46.211 50.9291 47.2919 50.4963 48.0952 49.7132C48.8986 48.9301 49.3587 47.8605 49.375 46.7388V33.5113C49.3738 32.9694 49.2656 32.433 49.0566 31.933C48.8476 31.433 48.5419 30.9791 48.1571 30.5975ZM34.6367 23.5059C34.8725 23.2903 35.1805 23.1707 35.5 23.1707C35.8195 23.1707 36.1275 23.2903 36.3633 23.5059L44.75 31.6459L36.3171 39.7859C36.0812 40.0015 35.7733 40.121 35.4537 40.121C35.1342 40.121 34.8263 40.0015 34.5904 39.7859L26.25 31.6459L34.6367 23.5059ZM46.2917 46.7388C46.2718 47.0414 46.1355 47.3245 45.9112 47.5286C45.687 47.7328 45.3923 47.842 45.0892 47.8334H25.9108C25.6077 47.842 25.313 47.7328 25.0888 47.5286C24.8645 47.3245 24.7282 47.0414 24.7083 46.7388V34.498L30.9521 40.5105L28.3929 42.9771C28.1058 43.266 27.9446 43.6567 27.9446 44.064C27.9446 44.4713 28.1058 44.862 28.3929 45.1509C28.5362 45.3012 28.7084 45.421 28.8991 45.5031C29.0899 45.5853 29.2952 45.628 29.5029 45.6288C29.8998 45.6272 30.2809 45.4726 30.5667 45.1971L33.2954 42.5763C33.9731 42.9904 34.752 43.2096 35.5462 43.2096C36.3405 43.2096 37.1194 42.9904 37.7971 42.5763L40.5258 45.1971C40.8116 45.4726 41.1926 45.6272 41.5896 45.6288C41.7973 45.628 42.0026 45.5853 42.1934 45.5031C42.3841 45.421 42.5563 45.3012 42.6996 45.1509C42.9867 44.862 43.1479 44.4713 43.1479 44.064C43.1479 43.6567 42.9867 43.266 42.6996 42.9771L40.125 40.5105L46.2917 34.498V46.7388Z" fill="#F0FDF4"/>
</svg>
