<svg width="31" height="31" viewBox="0 0 31 31" fill="none" xmlns="http://www.w3.org/2000/svg">
<path d="M15.5 0.916748C13.5849 0.916748 11.6885 1.29396 9.9192 2.02684C8.14987 2.75972 6.54222 3.83392 5.18803 5.18811C2.45312 7.92301 0.91667 11.6323 0.91667 15.5001C0.903921 18.8676 2.06991 22.1334 4.2125 24.7313L1.29584 27.648C1.09348 27.8531 0.956404 28.1135 0.9019 28.3964C0.847396 28.6793 0.877908 28.972 0.989586 29.2376C1.11071 29.5 1.30707 29.7205 1.55374 29.8711C1.8004 30.0217 2.08625 30.0956 2.375 30.0834H15.5C19.3677 30.0834 23.0771 28.547 25.812 25.8121C28.5469 23.0772 30.0833 19.3678 30.0833 15.5001C30.0833 11.6323 28.5469 7.92301 25.812 5.18811C23.0771 2.4532 19.3677 0.916748 15.5 0.916748ZM15.5 27.1667H5.88959L7.24584 25.8105C7.51745 25.5373 7.66991 25.1676 7.66991 24.7824C7.66991 24.3971 7.51745 24.0275 7.24584 23.7542C5.33627 21.8468 4.14713 19.3363 3.88101 16.6504C3.61489 13.9645 4.28825 11.2695 5.78638 9.02438C7.2845 6.7793 9.5147 5.1231 12.097 4.33796C14.6793 3.55281 17.454 3.6873 19.9482 4.7185C22.4425 5.7497 24.5021 7.61382 25.7761 9.99326C27.05 12.3727 27.4596 15.1202 26.935 17.7678C26.4104 20.4154 24.984 22.7991 22.8989 24.5129C20.8138 26.2268 18.199 27.1646 15.5 27.1667ZM22.7917 14.0417H8.20834C7.82156 14.0417 7.45063 14.1954 7.17714 14.4689C6.90365 14.7424 6.75 15.1133 6.75 15.5001C6.75 15.8869 6.90365 16.2578 7.17714 16.5313C7.45063 16.8048 7.82156 16.9584 8.20834 16.9584H22.7917C23.1784 16.9584 23.5494 16.8048 23.8229 16.5313C24.0964 16.2578 24.25 15.8869 24.25 15.5001C24.25 15.1133 24.0964 14.7424 23.8229 14.4689C23.5494 14.1954 23.1784 14.0417 22.7917 14.0417ZM19.875 19.8751H11.125C10.7382 19.8751 10.3673 20.0287 10.0938 20.3022C9.82032 20.5757 9.66667 20.9466 9.66667 21.3334C9.66667 21.7202 9.82032 22.0911 10.0938 22.3646C10.3673 22.6381 10.7382 22.7917 11.125 22.7917H19.875C20.2618 22.7917 20.6327 22.6381 20.9062 22.3646C21.1797 22.0911 21.3333 21.7202 21.3333 21.3334C21.3333 20.9466 21.1797 20.5757 20.9062 20.3022C20.6327 20.0287 20.2618 19.8751 19.875 19.8751ZM11.125 11.1251H19.875C20.2618 11.1251 20.6327 10.9714 20.9062 10.6979C21.1797 10.4245 21.3333 10.0535 21.3333 9.66675C21.3333 9.27997 21.1797 8.90904 20.9062 8.63555C20.6327 8.36206 20.2618 8.20842 19.875 8.20842H11.125C10.7382 8.20842 10.3673 8.36206 10.0938 8.63555C9.82032 8.90904 9.66667 9.27997 9.66667 9.66675C9.66667 10.0535 9.82032 10.4245 10.0938 10.6979C10.3673 10.9714 10.7382 11.1251 11.125 11.1251Z" fill="#1C3B52"/>
</svg>
