<svg width="70" height="70" viewBox="0 0 70 70" fill="none" xmlns="http://www.w3.org/2000/svg">
<circle cx="35" cy="35" r="35" fill="#00C7FF"/>
<path d="M47.35 39.6667C46.9833 39.6667 46.6 39.55 46.2333 39.4667C45.4914 39.3008 44.7618 39.0836 44.05 38.8167C43.2768 38.5354 42.4269 38.55 41.6638 38.8577C40.9008 39.1654 40.2785 39.7444 39.9166 40.4834L39.55 41.25C37.9314 40.332 36.436 39.212 35.1 37.9167C33.8047 36.5807 32.6846 35.0853 31.7666 33.4667L32.5333 33.1167C33.2723 32.7549 33.8513 32.1326 34.159 31.3695C34.4667 30.6065 34.4813 29.7566 34.2 28.9834C33.9353 28.2651 33.7182 27.5302 33.55 26.7834C33.4666 26.4167 33.4 26.0334 33.35 25.6667C33.1476 24.4927 32.5327 23.4296 31.616 22.6688C30.6993 21.9079 29.5411 21.4994 28.35 21.5167H23.3333C22.6287 21.5158 21.9319 21.6638 21.2885 21.951C20.6451 22.2382 20.0697 22.6582 19.6 23.1834C19.1205 23.7228 18.7635 24.3596 18.5535 25.0501C18.3435 25.7406 18.2854 26.4683 18.3833 27.1834C19.2893 34.1203 22.4587 40.5645 27.4 45.5167C32.3522 50.458 38.7964 53.6274 45.7333 54.5334C45.9497 54.5499 46.167 54.5499 46.3833 54.5334C47.6123 54.5352 48.799 54.0843 49.7166 53.2667C50.2418 52.797 50.6618 52.2216 50.949 51.5782C51.2362 50.9348 51.3842 50.238 51.3833 49.5334V44.5334C51.3743 43.3818 50.9681 42.2686 50.2332 41.3819C49.4983 40.4952 48.4799 39.8893 47.35 39.6667ZM48.1666 49.6667C48.1661 49.8993 48.1169 50.1292 48.0222 50.3416C47.9274 50.554 47.7893 50.7442 47.6166 50.9C47.434 51.0665 47.2166 51.1902 46.9802 51.2622C46.7439 51.3343 46.4944 51.3529 46.25 51.3167C40.0304 50.5044 34.2504 47.67 29.8 43.25C25.3458 38.7958 22.4867 32.9957 21.6666 26.75C21.6304 26.5056 21.649 26.2562 21.7211 26.0198C21.7932 25.7834 21.9169 25.566 22.0833 25.3834C22.241 25.2086 22.4339 25.0693 22.6494 24.9745C22.8648 24.8797 23.0979 24.8316 23.3333 24.8334H28.3333C28.7186 24.824 29.0952 24.9483 29.3991 25.1854C29.703 25.4224 29.9153 25.7574 30 26.1334C30 26.5834 30.15 27.05 30.25 27.5C30.4426 28.3731 30.6988 29.231 31.0166 30.0667L28.6833 31.1667C28.2823 31.3508 27.9706 31.6865 27.8166 32.1C27.65 32.5058 27.65 32.9609 27.8166 33.3667C30.2153 38.5046 34.3454 42.6347 39.4833 45.0334C39.8891 45.2001 40.3442 45.2001 40.75 45.0334C41.1636 44.8794 41.4992 44.5678 41.6833 44.1667L42.7333 41.8334C43.5932 42.1469 44.4729 42.403 45.3666 42.6C45.8 42.7 46.2666 42.7834 46.7166 42.85C47.0926 42.9347 47.4276 43.1471 47.6646 43.4509C47.9017 43.7548 48.0261 44.1314 48.0166 44.5167L48.1666 49.6667ZM38.3333 21.3334C37.95 21.3334 37.55 21.3334 37.1666 21.3334C36.7246 21.3709 36.3156 21.5826 36.0296 21.9217C35.7436 22.2608 35.6041 22.6997 35.6416 23.1417C35.6792 23.5837 35.8908 23.9927 36.23 24.2787C36.5691 24.5647 37.008 24.7043 37.45 24.6667H38.3333C40.9855 24.6667 43.529 25.7203 45.4044 27.5956C47.2797 29.471 48.3333 32.0145 48.3333 34.6667C48.3333 34.9667 48.3333 35.25 48.3333 35.55C48.2964 35.9897 48.4353 36.4261 48.7196 36.7635C49.0039 37.101 49.4104 37.3119 49.85 37.35H49.9833C50.4005 37.3517 50.8032 37.1969 51.1118 36.9161C51.4204 36.6353 51.6124 36.2489 51.65 35.8334C51.65 35.45 51.65 35.05 51.65 34.6667C51.65 31.1334 50.2475 27.7445 47.7506 25.2445C45.2537 22.7445 41.8666 21.3378 38.3333 21.3334ZM41.6666 34.6667C41.6666 35.1087 41.8422 35.5327 42.1548 35.8452C42.4674 36.1578 42.8913 36.3334 43.3333 36.3334C43.7753 36.3334 44.1993 36.1578 44.5118 35.8452C44.8244 35.5327 45 35.1087 45 34.6667C45 32.8986 44.2976 31.2029 43.0474 29.9527C41.7971 28.7024 40.1014 28 38.3333 28C37.8913 28 37.4674 28.1756 37.1548 28.4882C36.8422 28.8008 36.6666 29.2247 36.6666 29.6667C36.6666 30.1087 36.8422 30.5327 37.1548 30.8452C37.4674 31.1578 37.8913 31.3334 38.3333 31.3334C39.2174 31.3334 40.0652 31.6846 40.6903 32.3097C41.3155 32.9348 41.6666 33.7827 41.6666 34.6667Z" fill="#F0FDF4"/>
</svg>
