<svg width="70" height="70" viewBox="0 0 70 70" fill="none" xmlns="http://www.w3.org/2000/svg">
<circle cx="35" cy="35" r="35" fill="#00C7FF"/>
<path d="M35.0567 20.8334C27.3217 20.8334 21.0175 27.1375 21.0175 34.8725C21.0175 37.3517 21.6692 39.76 22.8875 41.885L20.9042 49.1667L28.3417 47.2117C30.3958 48.3309 32.705 48.9259 35.0567 48.9259C42.7917 48.9259 49.0958 42.6217 49.0958 34.8867C49.0958 31.1325 47.6367 27.605 44.9875 24.9559C42.3383 22.2925 38.8108 20.8334 35.0567 20.8334ZM35.0708 23.1992C38.1875 23.1992 41.1058 24.4175 43.3158 26.6275C45.5117 28.8375 46.73 31.77 46.73 34.8867C46.73 41.3184 41.4883 46.5459 35.0567 46.5459C32.96 46.5459 30.9058 45.9934 29.1208 44.9167L28.6958 44.6759L24.2758 45.8375L25.4517 41.5309L25.1683 41.0775C24.0067 39.25 23.3833 37.0825 23.3833 34.8725C23.3975 28.4409 28.625 23.1992 35.0708 23.1992ZM30.0842 28.3842C29.8575 28.3842 29.475 28.4692 29.1492 28.8234C28.8375 29.1775 27.9167 30.0417 27.9167 31.7559C27.9167 33.4842 29.1775 35.1417 29.3333 35.3825C29.5317 35.6234 31.8267 39.165 35.3542 40.6667C36.19 41.0492 36.8417 41.2617 37.3517 41.4175C38.1875 41.6867 38.9525 41.6442 39.5617 41.5592C40.2417 41.46 41.63 40.7092 41.9275 39.8875C42.225 39.0659 42.225 38.3717 42.14 38.2159C42.0408 38.0742 41.8142 37.9892 41.46 37.8334C41.1058 37.635 39.3775 36.785 39.0658 36.6717C38.74 36.5584 38.5417 36.5017 38.2725 36.8417C38.0458 37.1959 37.3658 37.9892 37.1675 38.2159C36.955 38.4567 36.7567 38.485 36.4167 38.315C36.0483 38.1309 34.915 37.7625 33.5833 36.5725C32.535 35.6375 31.8408 34.49 31.6283 34.1359C31.4583 33.7959 31.6142 33.5834 31.7842 33.4275C31.94 33.2717 32.1667 33.0167 32.3083 32.8042C32.4925 32.6059 32.5492 32.45 32.6625 32.2234C32.7758 31.9825 32.7192 31.7842 32.6342 31.6142C32.5492 31.4584 31.8408 29.7017 31.5433 29.0075C31.26 28.3275 30.9767 28.4125 30.75 28.3984C30.5517 28.3984 30.325 28.3842 30.0842 28.3842Z" fill="white"/>
</svg>
