<svg width="42" height="42" viewBox="0 0 42 42" fill="none" xmlns="http://www.w3.org/2000/svg">
<path fill-rule="evenodd" clip-rule="evenodd" d="M41.9372 17.681C42.3775 19.9773 40.44 21.8907 38.1018 21.8907H24.3428C22.0046 21.8907 20.1093 19.9953 20.1093 17.6571V3.89821C20.1093 1.56009 22.0226 -0.377429 24.3189 0.0627952C25.4313 0.276059 26.5142 0.572238 27.5609 0.944662C34.8884 3.55159 40.4444 9.89435 41.9372 17.681ZM37.6018 17.6571C36.0272 11.1237 30.8762 5.97277 24.3428 4.39812V17.6571H37.6018Z" fill="#00C7FF"/>
<path d="M13.3585 2.94267C14.6279 2.49036 15.8758 3.49868 15.8758 4.8463V4.97407C15.8758 5.92623 15.2336 6.74758 14.3464 7.09335C8.42755 9.40014 4.23354 15.1557 4.23354 21.8907C4.23354 30.6588 11.3414 37.7665 20.1093 37.7665C26.8444 37.7665 32.5999 33.5725 34.9068 27.6536C35.2524 26.7665 36.074 26.1243 37.0261 26.1243H37.1537C38.5015 26.1243 39.5097 27.3721 39.0573 28.6415C36.2833 36.427 28.8471 42 20.1093 42C9.00325 42 0 32.9968 0 21.8907C0 13.1529 5.57303 5.71667 13.3585 2.94267Z" fill="#00C7FF"/>
</svg>
