<svg width="64" height="64" viewBox="0 0 64 64" fill="none" xmlns="http://www.w3.org/2000/svg">
<path d="M19 46C16.243 46 14 48.243 14 51C14 53.757 16.243 56 19 56C21.757 56 24 53.757 24 51C24 48.243 21.757 46 19 46ZM19 54C17.346 54 16 52.654 16 51C16 49.346 17.346 48 19 48C20.654 48 22 49.346 22 51C22 52.654 20.654 54 19 54Z" fill="#00C7FF"/>
<path d="M29 54C29.552 54 30 53.552 30 53V49C30 48.448 29.552 48 29 48L27.462 47.956C27.365 47.688 27.257 47.426 27.115 47.128L28.192 46.051C28.583 45.66 28.583 45.028 28.192 44.637L25.363 41.808C24.972 41.417 24.34 41.417 23.949 41.808L22.829 42.864C22.573 42.744 22.311 42.635 21.999 42.525V41C21.999 40.448 21.551 40 20.999 40H16.999C16.447 40 15.999 40.448 15.999 41L15.955 42.538C15.687 42.635 15.425 42.743 15.127 42.885L14.05 41.808C13.659 41.417 13.027 41.417 12.636 41.808L9.807 44.637C9.416 45.028 9.416 45.66 9.807 46.051L10.863 47.171C10.743 47.427 10.634 47.689 10.524 48.001H9C8.448 48.001 8 48.449 8 49.001V53.001C8 53.553 8.448 54.001 9 54.001L10.538 54.045C10.635 54.313 10.743 54.575 10.885 54.873L9.808 55.95C9.417 56.341 9.417 56.973 9.808 57.364L12.637 60.193C13.028 60.584 13.66 60.584 14.051 60.193L15.171 59.137C15.427 59.257 15.689 59.366 16.001 59.476V61C16.001 61.552 16.449 62 17.001 62H21.001C21.553 62 22.001 61.552 22.001 61L22.045 59.462C22.313 59.365 22.575 59.257 22.873 59.115L23.95 60.192C24.341 60.583 24.973 60.583 25.364 60.192L28.193 57.363C28.584 56.972 28.584 56.34 28.193 55.949L27.137 54.829C27.257 54.573 27.366 54.311 27.476 53.999H29V54ZM25.701 56.287L26.071 56.657L24.656 58.072L24.286 57.702C23.684 57.098 22.777 56.952 21.978 57.327C21.779 57.421 21.575 57.506 21.367 57.58C20.537 57.877 20 58.622 20 59.476V60H18V59.476C18 58.622 17.463 57.877 16.633 57.58C16.424 57.505 16.219 57.42 16.021 57.327C15.222 56.951 14.315 57.098 13.713 57.702L13.343 58.072L11.928 56.657L12.298 56.287C12.902 55.684 13.049 54.778 12.673 53.979C12.579 53.78 12.494 53.576 12.42 53.368C12.123 52.537 11.378 52 10.524 52H10V50H10.524C11.378 50 12.123 49.463 12.42 48.633C12.495 48.424 12.58 48.219 12.673 48.021C13.049 47.222 12.902 46.316 12.298 45.713L11.928 45.343L13.343 43.928L13.713 44.298C14.316 44.902 15.223 45.049 16.021 44.673C16.22 44.579 16.424 44.494 16.632 44.42C17.463 44.123 18 43.378 18 42.524V42H20V42.524C20 43.378 20.537 44.123 21.367 44.42C21.576 44.495 21.781 44.58 21.979 44.673C22.779 45.05 23.685 44.902 24.287 44.298L24.657 43.928L26.072 45.343L25.702 45.713C25.098 46.316 24.951 47.222 25.327 48.021C25.421 48.22 25.506 48.424 25.58 48.632C25.877 49.463 26.622 50 27.476 50H28V52H27.476C26.622 52 25.877 52.537 25.58 53.367C25.505 53.576 25.42 53.781 25.327 53.979C24.951 54.778 25.098 55.684 25.701 56.287Z" fill="#00C7FF"/>
<path d="M47 39C42.589 39 39 42.589 39 47C39 51.411 42.589 55 47 55C51.411 55 55 51.411 55 47C55 42.589 51.411 39 47 39ZM47 53C43.691 53 41 50.309 41 47C41 43.691 43.691 41 47 41C50.309 41 53 43.691 53 47C53 50.309 50.309 53 47 53Z" fill="#00C7FF"/>
<path d="M61 43L59.349 42.973C59.141 42.336 58.883 41.711 58.565 41.092L59.729 39.929C59.917 39.741 60.022 39.487 60.022 39.222C60.022 38.957 59.917 38.702 59.729 38.515L55.486 34.272C55.111 33.897 54.447 33.897 54.072 34.272L52.885 35.42C52.29 35.118 51.665 34.859 51.001 34.646V33C51.001 32.448 50.553 32 50.001 32H44.001C43.449 32 43.001 32.448 43.001 33L42.974 34.651C42.337 34.859 41.712 35.117 41.093 35.435L39.93 34.271C39.742 34.083 39.488 33.978 39.223 33.978C38.958 33.978 38.703 34.083 38.516 34.271L34.273 38.514C34.085 38.702 33.98 38.956 33.98 39.221C33.98 39.486 34.085 39.741 34.273 39.928L35.421 41.115C35.119 41.71 34.86 42.335 34.647 42.999H33C32.448 42.999 32 43.447 32 43.999V49.999C32 50.551 32.448 50.999 33 50.999L34.651 51.026C34.859 51.663 35.117 52.288 35.435 52.906L34.271 54.07C33.88 54.461 33.88 55.093 34.271 55.484L38.514 59.727C38.905 60.118 39.537 60.118 39.928 59.727L41.115 58.579C41.71 58.881 42.335 59.14 42.999 59.353V61C42.999 61.552 43.447 62 43.999 62H49.999C50.551 62 50.999 61.552 50.999 61L51.026 59.349C51.663 59.141 52.288 58.883 52.906 58.565L54.07 59.729C54.461 60.12 55.093 60.12 55.484 59.729L59.727 55.486C60.118 55.095 60.118 54.463 59.727 54.072L58.579 52.885C58.881 52.29 59.14 51.665 59.353 51.001H61C61.552 51.001 62 50.553 62 50.001V44.001C62 43.448 61.552 43 61 43ZM60 49H59.354C58.487 49 57.721 49.566 57.446 50.408C57.271 50.947 57.052 51.475 56.797 51.978C56.396 52.768 56.538 53.709 57.151 54.322L57.608 54.779L54.779 57.608L54.322 57.151C53.709 56.537 52.766 56.396 51.978 56.797C51.475 57.053 50.947 57.272 50.408 57.447C49.566 57.721 49 58.487 49 59.354V60H45V59.354C45 58.487 44.434 57.721 43.592 57.446C43.053 57.271 42.525 57.052 42.022 56.797C41.231 56.395 40.29 56.537 39.678 57.151L39.221 57.608L36.392 54.779L36.849 54.322C37.461 53.71 37.603 52.768 37.203 51.978C36.947 51.475 36.728 50.947 36.553 50.408C36.279 49.566 35.513 49 34.646 49H34V45H34.646C35.513 45 36.279 44.434 36.554 43.592C36.729 43.053 36.948 42.525 37.203 42.022C37.604 41.232 37.462 40.29 36.849 39.678L36.393 39.222L39.221 36.394L39.677 36.85C40.289 37.462 41.231 37.606 42.021 37.204C42.524 36.948 43.052 36.729 43.591 36.554C44.434 36.279 45 35.513 45 34.646V34H49V34.646C49 35.513 49.566 36.279 50.408 36.554C50.947 36.729 51.475 36.948 51.978 37.203C52.767 37.602 53.709 37.462 54.322 36.849L54.778 36.393L57.606 39.221L57.15 39.677C56.537 40.289 56.396 41.232 56.796 42.021C57.052 42.524 57.271 43.052 57.446 43.591C57.721 44.434 58.487 45 59.354 45H60V49Z" fill="#00C7FF"/>
<path d="M14.0002 26.9999V37.9999H16.0002V27.9999H19.0002C19.3942 27.9999 19.7512 27.7689 19.9122 27.4099C20.0742 27.0509 20.0092 26.6299 19.7472 26.3359L11.7472 17.3359C11.3672 16.9089 10.6322 16.9089 10.2522 17.3359L2.25217 26.3359C1.99117 26.6299 1.92617 27.0499 2.08817 27.4099C2.24917 27.7689 2.60617 27.9999 3.00017 27.9999H6.00017V42.9999H8.00017V26.9999C8.00017 26.4479 7.55217 25.9999 7.00017 25.9999H5.22717L11.0002 19.5049L16.7732 25.9999H15.0002C14.4482 25.9999 14.0002 26.4479 14.0002 26.9999Z" fill="#00C7FF"/>
<path d="M34.9999 18.9999V32.9999H36.9999V19.9999H39.9999C40.3939 19.9999 40.7509 19.7689 40.9119 19.4099C41.0739 19.0509 41.0089 18.6299 40.7469 18.3359L32.7469 9.33587C32.3669 8.90887 31.6319 8.90887 31.2519 9.33587L23.2519 18.3359C22.9909 18.6299 22.9259 19.0509 23.0869 19.4099C23.2489 19.7689 23.6059 19.9999 23.9999 19.9999H26.9999V39.9999H28.9999V18.9999C28.9999 18.4479 28.5519 17.9999 27.9999 17.9999H26.2269L31.9999 11.5049L37.7729 17.9999H35.9999C35.4479 17.9999 34.9999 18.4479 34.9999 18.9999Z" fill="#00C7FF"/>
<path d="M55.9999 11.9999V27.9999H57.9999V12.9999H60.9999C61.3939 12.9999 61.7509 12.7689 61.9119 12.4099C62.0739 12.0509 62.0089 11.6299 61.7469 11.3359L53.7469 2.33587C53.3669 1.90887 52.6319 1.90887 52.2519 2.33587L44.2519 11.3359C43.9909 11.6299 43.9259 12.0509 44.0869 12.4099C44.2489 12.7689 44.6059 12.9999 44.9999 12.9999H47.9999V29.9999H49.9999V11.9999C49.9999 11.4479 49.5519 10.9999 48.9999 10.9999H47.2269L52.9999 4.50488L58.7729 10.9999H56.9999C56.4479 10.9999 55.9999 11.4479 55.9999 11.9999Z" fill="#00C7FF"/>
</svg>
