<svg width="512" height="512" viewBox="0 0 512 512" fill="none" xmlns="http://www.w3.org/2000/svg">
<g clip-path="url(#clip0_474_56)">
<path d="M430.933 320H110.933C49.664 320 0 270.336 0 209.067C0 147.797 49.664 98.1332 110.933 98.1332C111.659 98.1332 112.384 98.1332 113.092 98.1503C123.05 75.3187 139.453 55.8889 160.291 42.2432C181.129 28.5975 205.496 21.3291 230.404 21.3291C255.313 21.3291 279.68 28.5975 300.518 42.2432C321.356 55.8889 337.759 75.3187 347.716 98.1503C366.63 98.5762 385.018 104.452 400.674 115.072C416.33 125.692 428.588 140.605 435.977 158.02C457.01 159.317 476.711 168.752 490.906 184.328C505.1 199.903 512.672 220.393 512.016 241.456C511.361 262.519 502.529 282.498 487.393 297.16C472.257 311.822 452.006 320.014 430.933 320ZM110.933 115.2C59.0933 115.2 17.0667 157.227 17.0667 209.067C17.0667 260.907 59.0933 302.933 110.933 302.933H430.933C447.907 302.933 464.186 296.19 476.188 284.188C488.191 272.186 494.933 255.907 494.933 238.933C494.933 221.959 488.191 205.681 476.188 193.678C464.186 181.676 447.907 174.933 430.933 174.933H430.08C428.315 174.933 426.593 174.386 425.152 173.367C423.711 172.347 422.621 170.906 422.033 169.241C416.287 152.947 405.48 138.918 391.19 129.205C376.901 119.493 359.879 114.606 342.613 115.26C340.789 115.377 338.975 114.912 337.433 113.93C335.891 112.948 334.702 111.501 334.037 109.798C326.022 88.7802 311.806 70.6959 293.274 57.9449C274.743 45.1938 252.772 38.3786 230.278 38.4036C207.783 38.4286 185.828 45.2926 167.325 58.0848C148.822 70.877 134.646 88.9928 126.677 110.029C126.015 111.787 124.789 113.277 123.192 114.266C121.595 115.256 119.715 115.689 117.845 115.499C115.548 115.283 113.241 115.183 110.933 115.2Z" fill="#00C7FF"/>
<path d="M57.7702 260.266C56.4994 260.269 55.2442 259.986 54.0968 259.44C52.9495 258.894 51.9391 258.097 51.1399 257.109C43.8433 248.077 38.6962 237.504 36.088 226.189C33.4797 214.875 33.4785 203.115 36.0844 191.8C38.6904 180.485 43.8353 169.911 51.13 160.877C58.4247 151.843 67.6782 144.587 78.1905 139.656C79.2071 139.149 80.3146 138.85 81.4481 138.777C82.5817 138.704 83.7185 138.858 84.7919 139.229C85.8652 139.601 86.8535 140.183 87.6989 140.942C88.5442 141.701 89.2296 142.621 89.7147 143.648C90.1999 144.675 90.4751 145.789 90.5242 146.924C90.5733 148.059 90.3953 149.192 90.0007 150.257C89.6061 151.322 89.0028 152.298 88.2262 153.127C87.4495 153.956 86.5152 154.621 85.478 155.084C75.255 159.934 66.6119 167.576 60.5465 177.127C54.4812 186.679 51.2408 197.752 51.1996 209.066C51.1487 222.65 55.8146 235.831 64.4006 246.357C65.4166 247.609 66.0569 249.124 66.2473 250.725C66.4378 252.327 66.1705 253.949 65.4766 255.405C64.7827 256.861 63.6905 258.09 62.3266 258.95C60.9627 259.811 59.3829 260.267 57.7702 260.266ZM145.066 268.8C143.715 268.798 142.383 268.476 141.18 267.86C139.978 267.243 138.938 266.35 138.148 265.254C137.357 264.158 136.838 262.89 136.633 261.554C136.428 260.218 136.543 258.853 136.968 257.57L171.101 155.17C171.817 153.022 173.356 151.246 175.38 150.233C177.404 149.22 179.748 149.053 181.896 149.768C184.044 150.483 185.82 152.022 186.833 154.047C187.846 156.071 188.013 158.415 187.298 160.563L153.164 262.963C152.598 264.663 151.511 266.141 150.058 267.189C148.604 268.237 146.858 268.8 145.066 268.8Z" fill="#00C7FF"/>
<path d="M213.334 268.8C211.542 268.8 209.796 268.237 208.342 267.189C206.889 266.141 205.802 264.663 205.236 262.963L171.102 160.563C170.387 158.415 170.554 156.071 171.567 154.047C172.58 152.022 174.356 150.483 176.504 149.768C178.652 149.053 180.995 149.22 183.02 150.233C185.044 151.246 186.583 153.022 187.298 155.17L221.432 257.57C221.857 258.853 221.972 260.218 221.767 261.554C221.562 262.89 221.043 264.158 220.252 265.254C219.462 266.35 218.422 267.243 217.22 267.86C216.017 268.476 214.685 268.798 213.334 268.8Z" fill="#00C7FF"/>
<path d="M199.083 226.133H159.318C157.054 226.133 154.884 225.234 153.284 223.634C151.683 222.033 150.784 219.863 150.784 217.6C150.784 215.336 151.683 213.166 153.284 211.566C154.884 209.965 157.054 209.066 159.318 209.066H199.083C201.346 209.066 203.517 209.965 205.117 211.566C206.717 213.166 207.616 215.336 207.616 217.6C207.616 219.863 206.717 222.033 205.117 223.634C203.517 225.234 201.346 226.133 199.083 226.133ZM238.934 268.8C236.67 268.8 234.5 267.901 232.9 266.3C231.299 264.7 230.4 262.53 230.4 260.266V157.866C230.4 155.603 231.299 153.433 232.9 151.832C234.5 150.232 236.67 149.333 238.934 149.333C241.197 149.333 243.367 150.232 244.967 151.832C246.568 153.433 247.467 155.603 247.467 157.866V260.266C247.467 262.53 246.568 264.7 244.967 266.3C243.367 267.901 241.197 268.8 238.934 268.8Z" fill="#00C7FF"/>
<path d="M273.067 217.6H238.934C236.671 217.6 234.5 216.701 232.9 215.1C231.299 213.5 230.4 211.33 230.4 209.066V157.866C230.4 155.603 231.299 153.433 232.9 151.832C234.5 150.232 236.671 149.333 238.934 149.333H273.067C282.12 149.333 290.802 152.929 297.203 159.33C303.604 165.732 307.2 174.414 307.2 183.466C307.2 192.519 303.604 201.201 297.203 207.602C290.802 214.003 282.12 217.6 273.067 217.6V217.6ZM247.467 200.533H273.067C277.593 200.533 281.934 198.735 285.135 195.534C288.336 192.334 290.134 187.993 290.134 183.466C290.134 178.94 288.336 174.599 285.135 171.398C281.934 168.198 277.593 166.4 273.067 166.4H247.467V200.533ZM341.334 268.8C339.071 268.8 336.9 267.901 335.3 266.3C333.699 264.7 332.8 262.53 332.8 260.266V157.866C332.8 155.603 333.699 153.433 335.3 151.832C336.9 150.232 339.071 149.333 341.334 149.333C343.597 149.333 345.767 150.232 347.368 151.832C348.968 153.433 349.867 155.603 349.867 157.866V260.266C349.867 262.53 348.968 264.7 347.368 266.3C345.767 267.901 343.597 268.8 341.334 268.8Z" fill="#00C7FF"/>
<path d="M366.933 166.4H315.733C313.47 166.4 311.299 165.501 309.699 163.9C308.099 162.3 307.2 160.13 307.2 157.866C307.2 155.603 308.099 153.433 309.699 151.832C311.299 150.232 313.47 149.333 315.733 149.333H366.933C369.196 149.333 371.367 150.232 372.967 151.832C374.567 153.433 375.466 155.603 375.466 157.866C375.466 160.13 374.567 162.3 372.967 163.9C371.367 165.501 369.196 166.4 366.933 166.4ZM366.933 268.8H315.733C313.47 268.8 311.299 267.901 309.699 266.3C308.099 264.7 307.2 262.53 307.2 260.266C307.2 258.003 308.099 255.833 309.699 254.232C311.299 252.632 313.47 251.733 315.733 251.733H366.933C369.196 251.733 371.367 252.632 372.967 254.232C374.567 255.833 375.466 258.003 375.466 260.266C375.466 262.53 374.567 264.7 372.967 266.3C371.367 267.901 369.196 268.8 366.933 268.8ZM205.192 490.666C203.042 490.666 200.917 490.223 198.937 489.369L145.553 467.234C143.604 466.43 141.835 465.246 140.348 463.752C138.861 462.258 137.686 460.482 136.892 458.53C136.108 456.604 135.721 454.539 135.755 452.46C135.789 450.38 136.242 448.329 137.088 446.43L149.802 415.693C137.288 406.179 126.122 395.012 116.608 382.498L85.5976 395.298C81.7406 396.919 77.3886 396.911 73.5315 395.281C69.6762 393.69 66.608 390.637 64.9982 386.79L42.8883 333.141C41.2766 329.319 41.2424 325.015 42.7932 321.169C44.3441 317.322 47.354 314.245 51.1656 312.61L81.3992 300.151C82.4358 299.724 83.5463 299.506 84.6674 299.508C85.7884 299.51 86.8981 299.733 87.9329 300.164C88.9678 300.595 89.9076 301.226 90.6988 302.02C91.4899 302.814 92.1168 303.757 92.5438 304.793C92.9707 305.83 93.1893 306.94 93.1871 308.061C93.1849 309.182 92.9619 310.292 92.5308 311.327C92.0998 312.362 91.4691 313.302 90.6748 314.093C89.8805 314.884 88.9382 315.511 87.9016 315.938L59.1358 327.791L80.2643 379.033L116.292 364.16C118.084 363.42 120.075 363.313 121.936 363.856C123.797 364.399 125.418 365.559 126.532 367.146C137.051 382.173 150.119 395.241 165.145 405.76C166.736 406.874 167.899 408.498 168.442 410.363C168.985 412.228 168.876 414.222 168.132 416.017L153.267 451.959L204.476 473.182L219.358 437.222C220.1 435.424 221.435 433.933 223.14 432.997C224.846 432.062 226.82 431.737 228.736 432.076C246.767 435.294 265.224 435.268 283.238 432.008C287.189 431.3 291.089 433.433 292.633 437.128L307.592 473.156L358.733 451.951L343.859 415.923C343.116 414.124 343.011 412.125 343.56 410.258C344.11 408.391 345.281 406.767 346.88 405.657C361.912 395.192 374.976 382.151 385.468 367.138C386.58 365.55 388.202 364.389 390.064 363.848C391.926 363.306 393.917 363.416 395.708 364.16L431.718 379.067L452.966 327.825L432.426 319.274C431.377 318.866 430.419 318.253 429.607 317.473C428.796 316.692 428.147 315.758 427.698 314.726C427.248 313.693 427.008 312.582 426.991 311.456C426.973 310.33 427.179 309.211 427.595 308.165C428.012 307.119 428.631 306.166 429.418 305.36C430.205 304.554 431.144 303.913 432.18 303.471C433.216 303.03 434.329 302.798 435.455 302.79C436.581 302.781 437.698 302.995 438.741 303.419L460.672 312.55C464.563 314.137 467.661 317.243 469.231 321.152C470.818 325.026 470.801 329.361 469.205 333.218L447.001 386.756C446.209 388.694 445.037 390.455 443.556 391.934C442.075 393.414 440.313 394.584 438.374 395.374C436.435 396.165 434.358 396.561 432.264 396.539C430.17 396.517 428.102 396.078 426.18 395.247L395.375 382.498C385.882 395.004 374.722 406.153 362.206 415.633L374.997 446.617C376.644 450.415 376.678 454.707 375.108 458.53C374.312 460.487 373.134 462.265 371.642 463.761C370.151 465.257 368.376 466.441 366.421 467.242L312.943 489.421C311.026 490.223 308.968 490.638 306.89 490.64C304.812 490.642 302.753 490.232 300.834 489.434C298.916 488.636 297.174 487.465 295.711 485.989C294.247 484.513 293.091 482.762 292.309 480.836L279.466 449.894C263.907 452.065 248.124 452.088 232.559 449.962L219.767 480.87C218.583 483.763 216.566 486.239 213.973 487.984C211.38 489.73 208.327 490.666 205.201 490.675L205.192 490.666Z" fill="#00C7FF"/>
<path d="M256 396.8C230.115 396.697 204.863 388.789 183.544 374.109C162.224 359.428 145.829 338.658 136.499 314.513C136.081 313.462 135.875 312.339 135.895 311.209C135.914 310.078 136.158 308.963 136.612 307.928C137.066 306.892 137.722 305.957 138.54 305.177C139.359 304.397 140.324 303.788 141.38 303.384C142.436 302.98 143.562 302.791 144.692 302.826C145.822 302.861 146.934 303.12 147.963 303.589C148.992 304.057 149.918 304.726 150.686 305.555C151.455 306.385 152.051 307.358 152.44 308.42C160.447 329.398 174.636 347.449 193.129 360.185C211.622 372.92 233.546 379.74 256 379.74C278.454 379.74 300.379 372.92 318.872 360.185C337.364 347.449 351.554 329.398 359.561 308.42C359.95 307.358 360.546 306.385 361.314 305.555C362.082 304.726 363.008 304.057 364.037 303.589C365.066 303.12 366.178 302.861 367.308 302.826C368.438 302.791 369.564 302.98 370.62 303.384C371.676 303.788 372.642 304.397 373.46 305.177C374.279 305.957 374.934 306.892 375.388 307.928C375.842 308.963 376.086 310.078 376.105 311.209C376.125 312.339 375.919 313.462 375.501 314.513C366.172 338.658 349.776 359.428 328.457 374.109C307.137 388.789 281.885 396.697 256 396.8ZM162.133 123.733C160.782 123.731 159.45 123.409 158.247 122.793C157.045 122.176 156.005 121.284 155.215 120.187C154.424 119.091 153.905 117.823 153.7 116.487C153.495 115.151 153.61 113.786 154.035 112.503C172.834 56.1149 219.879 55.4663 221.867 55.4663C224.13 55.4607 226.303 56.3543 227.907 57.9506C229.511 59.5469 230.416 61.7152 230.421 63.9783C230.427 66.2415 229.533 68.4143 227.937 70.0186C226.341 71.6229 224.173 72.5273 221.909 72.533C220.254 72.5586 184.986 73.6167 170.232 117.896C169.665 119.596 168.579 121.075 167.125 122.122C165.672 123.17 163.925 123.733 162.133 123.733Z" fill="#00C7FF"/>
</g>
<defs>
<clipPath id="clip0_474_56">
<rect width="512" height="512" fill="white"/>
</clipPath>
</defs>
</svg>
