<svg width="512" height="512" viewBox="0 0 512 512" fill="none" xmlns="http://www.w3.org/2000/svg">
<path d="M256 330.668C226.535 330.668 202.668 306.801 202.668 277.332C202.668 247.867 226.535 224 256 224C285.465 224 309.332 247.867 309.332 277.332C309.332 306.801 285.465 330.668 256 330.668ZM256 245.332C238.398 245.332 224 259.734 224 277.332C224 294.934 238.398 309.332 256 309.332C273.602 309.332 288 294.934 288 277.332C288 259.734 273.602 245.332 256 245.332Z" fill="#00C7FF"/>
<path d="M393.633 124.703L408.719 139.789L293.699 254.809L278.613 239.727L393.633 124.703Z" fill="#00C7FF"/>
<path d="M512 288H394.668V256C394.668 236.133 390.535 216.8 382.398 198.8L401.868 190C411.331 210.8 416 232.934 416 256V266.668H490.668V256C490.668 126.668 385.332 21.332 256 21.332C126.668 21.332 21.332 126.668 21.332 256V266.668H96V256C96 167.734 167.734 96 256 96C287.465 96 317.867 105.066 344 122.398L332.266 140.266C309.602 125.332 283.332 117.465 256 117.465C179.602 117.465 117.332 179.735 117.332 256.133V288.133H0V256.133C0 114.8 114.8 0 256 0C397.2 0 512 114.8 512 256V288Z" fill="#00C7FF"/>
</svg>
