<svg width="512" height="512" viewBox="0 0 512 512" fill="none" xmlns="http://www.w3.org/2000/svg">
<g clip-path="url(#clip0_474_50)">
<path d="M456.145 0C425.342 0 400.291 25.0508 400.291 55.8545C400.291 65.4895 402.739 74.5565 407.049 82.4785L315.55 173.978C302.539 163.786 286.488 158.247 269.961 158.245C253.433 158.243 237.381 163.779 224.368 173.968L152.976 102.577C156.398 96.9024 158.222 90.4082 158.255 83.7818C158.255 63.246 141.554 46.5455 121.018 46.5455C100.482 46.5455 83.7818 63.246 83.7818 83.7818C83.7818 104.318 100.482 121.018 121.018 121.018C127.907 121.018 134.274 119.017 139.813 115.74L211.205 187.131C201.029 200.15 195.502 216.199 195.502 232.723C195.502 249.246 201.029 265.295 211.205 278.314L93.3143 396.214C83.0779 386.865 69.7175 381.679 55.8545 381.673C25.0508 381.673 0 406.723 0 437.527C0 468.331 25.0508 493.382 55.8545 493.382C86.6583 493.382 111.709 468.331 111.709 437.527C111.721 428.227 109.397 419.072 104.951 410.903L224.377 291.477C234.894 299.677 247.432 304.885 260.664 306.548V401.129C234.291 405.578 214.118 428.516 214.118 456.145C214.118 486.949 239.169 512 269.973 512C300.777 512 325.827 486.949 325.827 456.145C325.827 428.525 305.655 405.588 279.282 401.129V306.548C292.514 304.885 305.051 299.677 315.569 291.477L386.96 362.868C383.533 368.544 381.705 375.042 381.673 381.673C381.673 402.209 398.373 418.909 418.909 418.909C439.445 418.909 456.145 402.209 456.145 381.673C456.145 361.137 439.445 344.436 418.909 344.436C412.02 344.436 405.653 346.438 400.114 349.715L328.723 278.323C338.898 265.304 344.426 249.256 344.426 232.732C344.426 216.208 338.898 200.16 328.723 187.141L418.695 97.1683C428.927 106.518 442.285 111.704 456.145 111.709C486.949 111.709 512 86.6583 512 55.8545C512 25.0508 486.949 0 456.145 0ZM102.4 83.7818C102.4 73.5139 110.75 65.1636 121.018 65.1636C131.286 65.1636 139.636 73.5139 139.636 83.7818C139.636 94.0497 131.286 102.4 121.018 102.4C110.75 102.4 102.4 94.0497 102.4 83.7818ZM55.8545 474.764C35.3187 474.764 18.6182 458.063 18.6182 437.527C18.6182 416.991 35.3187 400.291 55.8545 400.291C76.3904 400.291 93.0909 416.991 93.0909 437.527C93.0909 458.063 76.3904 474.764 55.8545 474.764ZM307.2 456.145C307.2 476.681 290.499 493.382 269.964 493.382C249.428 493.382 232.727 476.681 232.727 456.145C232.727 435.61 249.428 418.909 269.964 418.909C290.499 418.909 307.2 435.61 307.2 456.145ZM269.964 288.582C239.16 288.582 214.109 263.531 214.109 232.727C214.109 201.923 239.16 176.873 269.964 176.873C300.767 176.873 325.818 201.923 325.818 232.727C325.818 263.531 300.767 288.582 269.964 288.582ZM437.527 381.673C437.527 391.941 429.177 400.291 418.909 400.291C408.641 400.291 400.291 391.941 400.291 381.673C400.291 371.405 408.641 363.055 418.909 363.055C429.177 363.055 437.527 371.405 437.527 381.673ZM456.145 93.0909C435.61 93.0909 418.909 76.3904 418.909 55.8545C418.909 35.3187 435.61 18.6182 456.145 18.6182C476.681 18.6182 493.382 35.3187 493.382 55.8545C493.382 76.3904 476.681 93.0909 456.145 93.0909Z" fill="#00C7FF"/>
</g>
<defs>
<clipPath id="clip0_474_50">
<rect width="512" height="512" fill="white"/>
</clipPath>
</defs>
</svg>
