<svg width="285" height="285" viewBox="0 0 285 285" fill="none" xmlns="http://www.w3.org/2000/svg">
<rect x="87.5" y="72.5" width="147" height="147" rx="31" fill="#FBFBFB" stroke="#E4E4E4" stroke-width="2" stroke-dasharray="10 10"/>
<g filter="url(#filter0_d_16_1535)">
<path d="M215 115V121.406C215 126.385 215 128.874 214.062 131.105C213.123 133.337 211.344 135.078 207.786 138.56L151.997 193.153C148.543 196.533 146.816 198.223 144.637 199.111C142.459 200 140.043 200 135.211 200H130C101.716 200 87.5736 200 78.7868 191.213C70 182.426 70 168.284 70 140V115C70 86.7157 70 72.5736 78.7868 63.7868C87.5736 55 101.716 55 130 55H155C183.284 55 197.426 55 206.213 63.7868C215 72.5736 215 86.7157 215 115Z" fill="white"/>
</g>
<path d="M144.5 199.5C177.693 176.515 194.131 162.563 214 131.5C196.724 138.837 184.121 141.291 166.813 141.115C160.123 141.047 154.98 147.121 155.939 153.742C158.668 172.583 155.431 183.662 144.5 199.5Z" fill="url(#paint0_linear_16_1535)"/>
<path d="M131.44 133.025C131.15 133.025 130.863 133.082 130.595 133.193C130.327 133.304 130.083 133.467 129.878 133.672C129.673 133.877 129.511 134.121 129.4 134.388C129.289 134.656 129.232 134.944 129.232 135.234V139.17C126.385 135.95 124.814 131.802 124.815 127.505C124.815 126.855 124.854 126.206 124.932 125.561C124.967 125.273 124.946 124.981 124.868 124.701C124.791 124.421 124.659 124.159 124.48 123.93C124.301 123.701 124.079 123.51 123.826 123.367C123.573 123.224 123.294 123.132 123.005 123.098C122.717 123.063 122.425 123.085 122.145 123.163C121.865 123.242 121.603 123.374 121.375 123.554C121.147 123.734 120.956 123.957 120.814 124.21C120.672 124.463 120.581 124.742 120.547 125.031C120.447 125.852 120.398 126.678 120.398 127.505C120.401 132.774 122.295 137.867 125.736 141.859H122.607C122.021 141.859 121.459 142.091 121.045 142.505C120.631 142.92 120.398 143.481 120.398 144.067C120.398 144.653 120.631 145.214 121.045 145.629C121.459 146.043 122.021 146.275 122.607 146.275H131.44C131.785 146.271 132.125 146.184 132.43 146.022C132.735 145.86 132.997 145.628 133.194 145.344C133.22 145.31 133.252 145.285 133.276 145.249C133.291 145.227 133.292 145.201 133.305 145.179C133.411 145.001 133.489 144.809 133.539 144.608C133.572 144.495 133.595 144.38 133.609 144.264C133.615 144.196 133.649 144.137 133.649 144.067V135.234C133.649 134.944 133.592 134.656 133.481 134.389C133.37 134.121 133.207 133.877 133.002 133.672C132.797 133.467 132.553 133.304 132.285 133.193C132.017 133.082 131.73 133.025 131.44 133.025V133.025ZM134.753 114.255H130.816C134.036 111.408 138.185 109.837 142.482 109.838C143.131 109.836 143.779 109.875 144.424 109.954C144.712 109.989 145.004 109.967 145.283 109.889C145.563 109.811 145.824 109.679 146.053 109.5C146.281 109.321 146.472 109.099 146.614 108.846C146.757 108.594 146.848 108.315 146.883 108.027C146.918 107.739 146.896 107.447 146.818 107.168C146.74 106.888 146.608 106.627 146.429 106.399C146.25 106.17 146.028 105.979 145.775 105.837C145.523 105.694 145.244 105.603 144.956 105.568C144.135 105.469 143.309 105.42 142.482 105.421C137.212 105.424 132.119 107.318 128.128 110.758V107.63C128.128 107.044 127.895 106.482 127.481 106.068C127.067 105.654 126.505 105.421 125.919 105.421C125.334 105.421 124.772 105.654 124.358 106.068C123.944 106.482 123.711 107.044 123.711 107.63V116.463C123.725 116.609 123.754 116.753 123.798 116.893L123.798 116.896C123.852 117.167 123.958 117.426 124.11 117.657L124.135 117.695C124.281 117.907 124.464 118.091 124.675 118.239C124.699 118.256 124.711 118.283 124.736 118.3C124.768 118.321 124.804 118.328 124.836 118.347C124.961 118.422 125.094 118.484 125.232 118.532C125.418 118.597 125.613 118.637 125.81 118.649C125.848 118.651 125.881 118.671 125.919 118.671H134.753C135.338 118.671 135.9 118.439 136.314 118.024C136.728 117.61 136.961 117.049 136.961 116.463C136.961 115.877 136.728 115.316 136.314 114.901C135.9 114.487 135.338 114.255 134.753 114.255V114.255ZM161.165 138.114C161.112 137.842 161.006 137.583 160.853 137.351L160.828 137.314C160.682 137.102 160.499 136.918 160.288 136.77C160.264 136.753 160.252 136.725 160.227 136.709C160.203 136.693 160.175 136.692 160.151 136.678C159.871 136.522 159.564 136.42 159.246 136.378C159.176 136.372 159.116 136.338 159.044 136.338H150.211C149.625 136.338 149.064 136.57 148.649 136.985C148.235 137.399 148.003 137.96 148.003 138.546C148.003 139.132 148.235 139.693 148.649 140.108C149.064 140.522 149.625 140.754 150.211 140.754H154.147C150.928 143.601 146.779 145.172 142.482 145.171C141.833 145.172 141.184 145.132 140.54 145.052C139.958 144.982 139.372 145.145 138.911 145.507C138.45 145.868 138.151 146.398 138.08 146.979C138.01 147.561 138.173 148.147 138.534 148.608C138.896 149.069 139.425 149.368 140.007 149.439C140.828 149.538 141.655 149.588 142.482 149.588C147.751 149.585 152.845 147.691 156.836 144.251V147.38C156.836 147.965 157.069 148.527 157.483 148.941C157.897 149.355 158.459 149.588 159.044 149.588C159.63 149.588 160.192 149.355 160.606 148.941C161.02 148.527 161.253 147.965 161.253 147.38V138.546C161.239 138.4 161.21 138.256 161.166 138.116L161.165 138.114ZM162.357 113.15C162.942 113.15 163.504 112.918 163.918 112.504C164.332 112.089 164.565 111.528 164.565 110.942C164.565 110.356 164.332 109.795 163.918 109.38C163.504 108.966 162.942 108.734 162.357 108.734H153.523C153.38 108.748 153.238 108.776 153.1 108.819L153.085 108.822C152.817 108.876 152.562 108.98 152.333 109.13L152.289 109.159C152.078 109.305 151.895 109.487 151.748 109.698C151.73 109.722 151.704 109.733 151.687 109.758C151.671 109.782 151.671 109.81 151.656 109.834C151.498 110.116 151.396 110.425 151.355 110.745C151.349 110.813 151.315 110.872 151.315 110.942V119.775C151.315 120.361 151.548 120.923 151.962 121.337C152.376 121.751 152.938 121.984 153.523 121.984C154.109 121.984 154.671 121.751 155.085 121.337C155.499 120.923 155.732 120.361 155.732 119.775V115.838C158.578 119.058 160.149 123.207 160.148 127.504C160.149 128.154 160.11 128.803 160.032 129.447C159.962 130.029 160.125 130.614 160.487 131.075C160.848 131.536 161.377 131.835 161.958 131.906C162.047 131.916 162.137 131.921 162.227 131.921C162.767 131.92 163.287 131.722 163.69 131.364C164.093 131.006 164.352 130.513 164.416 129.978C164.516 129.157 164.566 128.331 164.565 127.505C164.562 122.235 162.668 117.142 159.228 113.15H162.357Z" fill="#6ED097"/>
<defs>
<filter id="filter0_d_16_1535" x="0" y="0" width="285" height="285" filterUnits="userSpaceOnUse" color-interpolation-filters="sRGB">
<feFlood flood-opacity="0" result="BackgroundImageFix"/>
<feColorMatrix in="SourceAlpha" type="matrix" values="0 0 0 0 0 0 0 0 0 0 0 0 0 0 0 0 0 0 127 0" result="hardAlpha"/>
<feOffset dy="15"/>
<feGaussianBlur stdDeviation="35"/>
<feColorMatrix type="matrix" values="0 0 0 0 0 0 0 0 0 0 0 0 0 0 0 0 0 0 0.05 0"/>
<feBlend mode="normal" in2="BackgroundImageFix" result="effect1_dropShadow_16_1535"/>
<feBlend mode="normal" in="SourceGraphic" in2="effect1_dropShadow_16_1535" result="shape"/>
</filter>
<linearGradient id="paint0_linear_16_1535" x1="153.884" y1="140.447" x2="181.558" y2="170.43" gradientUnits="userSpaceOnUse">
<stop stop-color="white"/>
<stop offset="0.729167" stop-color="#E5F1FF" stop-opacity="0.56"/>
<stop offset="1" stop-color="#F9FBFF"/>
</linearGradient>
</defs>
</svg>
