<svg width="535" height="515" viewBox="0 0 535 515" fill="none" xmlns="http://www.w3.org/2000/svg">
<path d="M251.16 428.85L201.556 513.145H300.763L251.16 428.85Z" fill="#329ADA"/>
<path d="M447.846 89.5117L398.243 173.806H497.449L447.846 89.5117Z" fill="#2899EB"/>
<path d="M398.134 173.806L346.659 259.721H449.61L398.134 173.806Z" fill="#329ADA"/>
<path d="M349.503 258.1L298.964 173.806H400.042L349.503 258.1Z" fill="#A4C4D8"/>
<path d="M299.791 510.983L350.33 426.689H249.252L299.791 510.983Z" fill="#1E82BF"/>
<path d="M397.054 175.967L449.465 90.0522H344.643L397.054 175.967Z" fill="#0589DA"/>
<path d="M52.312 428.85L101.915 342.935H2.70862L52.312 428.85Z" fill="#1E82BF"/>
<path d="M447.846 428.85L497.45 342.935H398.243L447.846 428.85Z" fill="#66A3C8"/>
<path d="M299.791 342.395L350.33 258.1H249.252L299.791 342.395Z" fill="#2C88C0"/>
<path d="M299.791 342.395L350.33 258.1H249.252L299.791 342.395Z" fill="#2C88C0"/>
<path d="M299.791 342.395L350.33 258.1H249.252L299.791 342.395Z" fill="#2C88C0"/>
<path d="M299.791 342.395L350.33 258.1H249.252L299.791 342.395Z" fill="#2C88C0"/>
<path d="M151.736 428.85L201.339 513.145H102.132L151.736 428.85Z" fill="#BFE7FF"/>
<path d="M399.215 510.983L449.754 426.689H348.676L399.215 510.983Z" fill="#C7DAE7"/>
<path d="M446.766 258.1L497.305 173.806H396.227L446.766 258.1Z" fill="#C7DAE7"/>
<path d="M151.736 431.012L201.339 343.475H102.132L151.736 431.012Z" fill="white"/>
<path d="M446.766 258.1L497.305 345.637H396.227L446.766 258.1Z" fill="#3FD2E6"/>
<path d="M101.809 514.291L51.835 426.973L154.302 428.407L101.809 514.291Z" fill="#074871"/>
<path d="M201.447 510.983L252.922 425.068H149.972L201.447 510.983Z" fill="white"/>
<path d="M201.448 342.395L149.973 428.31H252.923L201.448 342.395Z" fill="#60C2FF"/>
<path d="M349.503 426.689L400.042 512.604H298.964L349.503 426.689Z" fill="white"/>
<path d="M250.079 258.1L300.618 344.016H199.54L250.079 258.1Z" fill="white"/>
<path d="M349.503 255.939L400.042 345.096H298.964L349.503 255.939Z" fill="white"/>
<path d="M51.231 426.689L101.77 512.604H0.692017L51.231 426.689Z" fill="white"/>
<path d="M494.316 0.894531L441.905 90.052H546.727L494.316 0.894531Z" fill="#329ADA"/>
<path d="M251.159 428.85L300.763 342.935H201.556L251.159 428.85Z" fill="#009EFF"/>
<path d="M251.159 428.85L300.763 342.935H201.556L251.159 428.85Z" fill="#0069A9"/>
<path d="M200.367 167.322L250.906 258.1H149.827L200.367 167.322Z" fill="#91CBEF"/>
<path d="M200.367 167.322L250.906 258.1H149.827L200.367 167.322Z" fill="#91CBEF"/>
<path d="M200.367 167.322L250.906 258.1H149.827L200.367 167.322Z" fill="#91CBEF"/>
<path d="M397.272 343.645L348.563 256.345L448.501 257.744L397.272 343.645Z" fill="#A4D2EE"/>
<path d="M299.791 342.395L249.252 426.689H350.33L299.791 342.395Z" fill="#BEE6FF"/>
<path d="M299.791 342.395L249.252 426.689H350.33L299.791 342.395Z" fill="#BEE6FF"/>
<path d="M348.422 428.85L298.819 342.935H398.026L348.422 428.85Z" fill="#60C2FF"/>
<path d="M100.943 342.395L50.4041 428.31H151.482L100.943 342.395Z" fill="#BEE6FF"/>
<path d="M250.079 258.1L199.54 344.016H300.618L250.079 258.1Z" fill="#07629A"/>
<path d="M397.054 342.395L346.514 426.689H447.593L397.054 342.395Z" fill="#0B5D8F"/>
<path d="M392.731 7.37891L342.192 91.6731H443.27L392.731 7.37891Z" fill="#0B5D8F"/>
<path d="M447.846 428.85L398.243 513.145H497.449L447.846 428.85Z" fill="#9BC2DA"/>
<path d="M494.316 175.967L443.777 260.262H544.855L494.316 175.967Z" fill="#BEE6FF"/>
<path d="M497 514L545 429H449L497 514Z" fill="#1E82BF"/>
</svg>
