<svg width="45" height="45" viewBox="0 0 45 45" fill="none" xmlns="http://www.w3.org/2000/svg">
<g clip-path="url(#clip0_472_51)">
<path d="M11.042 27.604C10.752 27.604 10.465 27.661 10.197 27.772C9.929 27.883 9.685 28.046 9.48 28.251C9.275 28.456 9.11299 28.7 9.00199 28.967C8.89099 29.235 8.83399 29.523 8.83399 29.813V33.749C5.98699 30.529 4.416 26.381 4.417 22.084C4.417 21.434 4.456 20.785 4.534 20.14C4.569 19.852 4.54799 19.56 4.46999 19.28C4.39299 19 4.261 18.738 4.082 18.509C3.903 18.28 3.68099 18.089 3.42799 17.946C3.17499 17.803 2.89599 17.711 2.60699 17.677C2.31899 17.642 2.02699 17.664 1.74699 17.742C1.46699 17.821 1.205 17.953 0.976997 18.133C0.748997 18.313 0.558 18.536 0.416 18.789C0.274 19.042 0.182994 19.321 0.148994 19.61C0.0489944 20.431 0 21.257 0 22.084C0.003 27.353 1.897 32.446 5.338 36.438H2.209C1.623 36.438 1.061 36.67 0.646996 37.084C0.232996 37.499 0 38.06 0 38.646C0 39.232 0.232996 39.793 0.646996 40.208C1.061 40.622 1.623 40.854 2.209 40.854H11.042C11.387 40.85 11.727 40.763 12.032 40.601C12.337 40.439 12.599 40.207 12.796 39.923C12.822 39.889 12.854 39.864 12.878 39.828C12.893 39.806 12.894 39.78 12.907 39.758C13.013 39.58 13.091 39.388 13.141 39.187C13.174 39.074 13.197 38.959 13.211 38.843C13.217 38.775 13.251 38.716 13.251 38.646V29.813C13.251 29.523 13.194 29.235 13.083 28.968C12.972 28.7 12.809 28.456 12.604 28.251C12.399 28.046 12.155 27.883 11.887 27.772C11.619 27.661 11.332 27.604 11.042 27.604ZM14.355 8.83401H10.418C13.638 5.98702 17.787 4.41601 22.084 4.41701C22.733 4.41501 23.381 4.45402 24.026 4.53302C24.314 4.56802 24.606 4.54602 24.885 4.46802C25.165 4.39002 25.426 4.25802 25.655 4.07902C25.883 3.90002 26.074 3.67802 26.216 3.42502C26.359 3.17302 26.45 2.89402 26.485 2.60602C26.52 2.31802 26.498 2.02602 26.42 1.74702C26.342 1.46702 26.21 1.20602 26.031 0.978019C25.852 0.749019 25.63 0.558015 25.377 0.416015C25.125 0.273015 24.846 0.182018 24.558 0.147018C23.737 0.0480182 22.911 -0.000985001 22.084 1.4999e-05C16.814 0.003015 11.721 1.89702 7.73 5.33702V2.20901C7.73 1.62301 7.497 1.06102 7.083 0.647018C6.669 0.233018 6.107 1.4999e-05 5.521 1.4999e-05C4.936 1.4999e-05 4.374 0.233018 3.96 0.647018C3.546 1.06102 3.313 1.62301 3.313 2.20901V11.042C3.327 11.188 3.35599 11.332 3.39999 11.472V11.475C3.45399 11.746 3.56 12.005 3.712 12.236L3.737 12.274C3.883 12.486 4.066 12.67 4.277 12.818C4.301 12.835 4.313 12.862 4.338 12.879C4.37 12.9 4.406 12.907 4.438 12.926C4.563 13.001 4.696 13.063 4.834 13.111C5.02 13.176 5.21499 13.216 5.41199 13.228C5.44999 13.23 5.483 13.25 5.521 13.25H14.355C14.94 13.25 15.502 13.018 15.916 12.603C16.33 12.189 16.563 11.628 16.563 11.042C16.563 10.456 16.33 9.89502 15.916 9.48002C15.502 9.06602 14.94 8.83401 14.355 8.83401ZM40.767 32.693C40.714 32.421 40.608 32.162 40.455 31.93L40.43 31.893C40.284 31.681 40.101 31.497 39.89 31.349C39.866 31.332 39.854 31.304 39.829 31.288C39.805 31.272 39.777 31.271 39.753 31.257C39.473 31.101 39.166 30.999 38.848 30.957C38.778 30.951 38.718 30.917 38.646 30.917H29.813C29.227 30.917 28.666 31.149 28.251 31.564C27.837 31.978 27.605 32.539 27.605 33.125C27.605 33.711 27.837 34.272 28.251 34.687C28.666 35.101 29.227 35.333 29.813 35.333H33.749C30.53 38.18 26.381 39.751 22.084 39.75C21.435 39.751 20.786 39.711 20.142 39.631C19.56 39.561 18.974 39.724 18.513 40.086C18.052 40.447 17.753 40.977 17.682 41.558C17.612 42.14 17.775 42.726 18.136 43.187C18.498 43.648 19.027 43.947 19.609 44.018C20.43 44.117 21.257 44.167 22.084 44.167C27.353 44.164 32.447 42.27 36.438 38.83V41.959C36.438 42.544 36.671 43.106 37.085 43.52C37.499 43.934 38.061 44.167 38.646 44.167C39.232 44.167 39.794 43.934 40.208 43.52C40.622 43.106 40.855 42.544 40.855 41.959V33.125C40.841 32.979 40.812 32.835 40.768 32.695L40.767 32.693ZM41.959 7.72902C42.544 7.72902 43.106 7.49701 43.52 7.08301C43.934 6.66801 44.167 6.10702 44.167 5.52102C44.167 4.93502 43.934 4.37401 43.52 3.95901C43.106 3.54501 42.544 3.31302 41.959 3.31302H33.125C32.982 3.32702 32.84 3.35502 32.702 3.39802L32.687 3.40102C32.419 3.45502 32.164 3.55901 31.935 3.70901L31.891 3.73801C31.68 3.88401 31.497 4.06602 31.35 4.27702C31.332 4.30102 31.306 4.31202 31.289 4.33702C31.273 4.36102 31.273 4.38902 31.258 4.41302C31.1 4.69502 30.998 5.00402 30.957 5.32402C30.951 5.39202 30.917 5.45102 30.917 5.52102V14.354C30.917 14.94 31.15 15.502 31.564 15.916C31.978 16.33 32.54 16.563 33.125 16.563C33.711 16.563 34.273 16.33 34.687 15.916C35.101 15.502 35.334 14.94 35.334 14.354V10.417C38.18 13.637 39.751 17.786 39.75 22.083C39.751 22.733 39.712 23.382 39.634 24.026C39.564 24.608 39.727 25.193 40.089 25.654C40.45 26.115 40.979 26.414 41.56 26.485C41.649 26.495 41.739 26.5 41.829 26.5C42.369 26.499 42.889 26.301 43.292 25.943C43.695 25.585 43.954 25.092 44.018 24.557C44.118 23.736 44.168 22.91 44.167 22.084C44.164 16.814 42.27 11.721 38.83 7.72902H41.959Z" fill="#00C7FF"/>
</g>
<defs>
<clipPath id="clip0_472_51">
<rect width="45" height="45" fill="white"/>
</clipPath>
</defs>
</svg>
