<svg width="35" height="22" viewBox="0 0 35 22" fill="none" xmlns="http://www.w3.org/2000/svg">
<path d="M32.662 8.88435C31.56 7.59302 30.3629 6.38593 29.0808 5.27319C26.2984 2.86768 21.9537 0 17.057 0C12.1531 0 7.81212 2.85418 5.03407 5.24856C3.74968 6.35885 2.55197 7.56561 1.45138 8.85832C0.982734 9.41013 0.658358 9.8318 0.468714 10.0883C0.0744654 10.6217 0 10.7666 0 10.9999C0 11.2453 0.0835126 11.3795 0.471707 11.8972C0.664969 12.1547 0.991921 12.5752 1.45208 13.1151C2.55408 14.4064 3.75114 15.6135 5.03323 16.7262C7.81566 19.1323 12.1603 22 17.057 22C21.961 22 26.3019 19.1458 29.08 16.7515C30.3644 15.6412 31.5621 14.4345 32.6627 13.1418C33.1314 12.5899 33.456 12.1683 33.6453 11.9117C34.0396 11.3783 34.1141 11.2334 34.1141 11.0001C34.1141 10.7547 34.0305 10.6205 33.6424 10.1028C33.4491 9.84516 33.1221 9.42474 32.662 8.88435ZM27.9102 15.9195C23.3066 19.7946 19.4671 20.6081 17.057 20.6081C14.647 20.6081 10.8026 19.7875 6.18292 15.8785C3.80609 13.8673 2.1247 11.7911 1.53218 10.9923C2.10626 10.2059 3.77832 8.12216 6.2038 6.08062C10.8075 2.20536 14.647 1.39188 17.057 1.39188C19.4671 1.39188 23.3114 2.21246 27.9311 6.12154C30.3081 8.1328 31.9895 10.2091 32.5819 11.0078C32.0079 11.7939 30.3359 13.8778 27.9102 15.9195Z" fill="#00C7FF"/>
<path d="M17.057 2.72168C15.4197 2.72167 13.8191 3.20717 12.4578 4.1168C11.0964 5.02642 10.0353 6.31931 9.40874 7.83198C8.78216 9.34464 8.61821 11.0091 8.93763 12.615C9.25704 14.2208 10.0455 15.6959 11.2032 16.8536C12.361 18.0114 13.836 18.7998 15.4418 19.1193C17.0477 19.4387 18.7122 19.2747 20.2249 18.6482C21.7375 18.0216 23.0304 16.9606 23.9401 15.5992C24.8497 14.2378 25.3352 12.6373 25.3352 11C25.3327 8.80523 24.4598 6.70106 22.9078 5.14912C21.3559 3.59717 19.2517 2.72418 17.057 2.72168V2.72168ZM17.057 17.8862C15.6949 17.8862 14.3635 17.4823 13.231 16.7256C12.0985 15.9689 11.2159 14.8934 10.6946 13.635C10.1734 12.3767 10.037 10.992 10.3028 9.65619C10.5685 8.32033 11.2244 7.09328 12.1875 6.1302C13.1506 5.16712 14.3777 4.51126 15.7136 4.24557C17.0494 3.97988 18.4341 4.11629 19.6924 4.63755C20.9507 5.15881 22.0262 6.04151 22.7829 7.17402C23.5396 8.30652 23.9434 9.63798 23.9433 11C23.9413 12.8258 23.2151 14.5762 21.9241 15.8672C20.6331 17.1582 18.8827 17.8844 17.057 17.8865V17.8862Z" fill="#00C7FF"/>
<path d="M20.7485 10.4018L15.2098 7.12091C15.1019 7.05824 14.9795 7.02474 14.8547 7.02371C14.7299 7.02267 14.607 7.05413 14.498 7.11499C14.3899 7.17514 14.2993 7.26261 14.2355 7.36866C14.1717 7.47472 14.1368 7.59566 14.1343 7.71941V14.2813C14.1367 14.4051 14.1716 14.5261 14.2355 14.6322C14.2993 14.7383 14.3898 14.8258 14.498 14.886C14.6053 14.9459 14.726 14.9773 14.8489 14.9773C14.9747 14.9772 15.0982 14.9436 15.2066 14.8799L20.747 11.5989C20.8511 11.5375 20.9373 11.45 20.9973 11.3451C21.0572 11.2402 21.0888 11.1214 21.089 11.0006C21.0892 10.8798 21.0578 10.761 20.9981 10.6559C20.9384 10.5509 20.8524 10.4631 20.7485 10.4014V10.4018ZM15.5262 13.0603V8.94037L19.0035 11.0003L15.5262 13.0603Z" fill="#00C7FF"/>
</svg>
